<?xml version="1.0" encoding="UTF-8"?>
<svg version="1.1" xmlns="http://www.w3.org/2000/svg" width="512" height="512">
<path d="M0 0 C1.01790619 0.00215515 2.03581238 0.0043103 3.08456421 0.00653076 C17.69363523 0.05620146 32.02575853 0.30709809 46.375 3.3125 C47.34985352 3.51117676 48.32470703 3.70985352 49.32910156 3.91455078 C97.7109774 14.03517194 141.69928269 35.9516877 177.375 70.3125 C178.3640332 71.26068604 178.3640332 71.26068604 179.37304688 72.22802734 C188.86130305 81.37247479 197.6012044 90.66984009 205.375 101.3125 C206.23306152 102.46355017 207.09113451 103.61459177 207.94921875 104.765625 C213.98736829 112.95680614 219.34595521 121.47054105 224.375 130.3125 C224.73948242 130.94430176 225.10396484 131.57610352 225.47949219 132.22705078 C247.08534998 169.97532572 256.85198095 212.74189997 256.6875 255.9375 C256.68534485 256.95540619 256.6831897 257.97331238 256.68096924 259.02206421 C256.63129854 273.63113523 256.38040191 287.96325853 253.375 302.3125 C253.07698486 303.77478027 253.07698486 303.77478027 252.77294922 305.26660156 C242.65232806 353.6484774 220.7358123 397.63678269 186.375 433.3125 C185.74287598 433.97185547 185.11075195 434.63121094 184.45947266 435.31054688 C175.31502521 444.79880305 166.01765991 453.5387044 155.375 461.3125 C154.22394983 462.17056152 153.07290823 463.02863451 151.921875 463.88671875 C143.73224019 469.92427396 135.22961724 475.30707302 126.375 480.3125 C125.66778809 480.7146875 124.96057617 481.116875 124.23193359 481.53125 C101.09654164 494.5566741 75.92537591 503.30551461 49.9375 508.625 C49.21860596 508.77235596 48.49971191 508.91971191 47.7590332 509.0715332 C33.08339502 511.86090125 18.55831162 512.66142619 3.64770508 512.62817383 C0.70811513 512.6250221 -2.2304558 512.64854926 -5.16992188 512.67382812 C-18.54306192 512.71848737 -31.43916711 511.51301542 -44.625 509.3125 C-46.33055054 509.03031616 -46.33055054 509.03031616 -48.07055664 508.74243164 C-91.33802759 500.97044532 -132.38793216 480.98345309 -165.625 452.3125 C-166.37007813 451.67828125 -167.11515625 451.0440625 -167.8828125 450.390625 C-181.38779833 438.57948485 -194.05918743 425.82889772 -204.625 411.3125 C-205.48149066 410.16255169 -206.33826433 409.01281411 -207.1953125 407.86328125 C-213.23534209 399.67315742 -218.61867614 391.16870382 -223.625 382.3125 C-224.0271875 381.60528809 -224.429375 380.89807617 -224.84375 380.16943359 C-237.8691741 357.03404164 -246.61801461 331.86287591 -251.9375 305.875 C-252.08485596 305.15610596 -252.23221191 304.43721191 -252.3840332 303.6965332 C-255.35789088 288.05024391 -255.99800362 272.57681954 -255.9375 256.6875 C-255.93534485 255.66959381 -255.9331897 254.65168762 -255.93096924 253.60293579 C-255.88129854 238.99386477 -255.63040191 224.66174147 -252.625 210.3125 C-252.42632324 209.33764648 -252.22764648 208.36279297 -252.02294922 207.35839844 C-241.90232806 158.9765226 -219.9858123 114.98821731 -185.625 79.3125 C-184.99287598 78.65314453 -184.36075195 77.99378906 -183.70947266 77.31445312 C-174.56502521 67.82619695 -165.26765991 59.0862956 -154.625 51.3125 C-153.47394983 50.45443848 -152.32290823 49.59636549 -151.171875 48.73828125 C-142.98224019 42.70072604 -134.47961724 37.31792698 -125.625 32.3125 C-124.91778809 31.9103125 -124.21057617 31.508125 -123.48193359 31.09375 C-100.34654164 18.0683259 -75.17537591 9.31948539 -49.1875 4 C-48.46860596 3.85264404 -47.74971191 3.70528809 -47.0090332 3.5534668 C-31.36274391 0.57960912 -15.88931954 -0.06050362 0 0 Z M-71.625 171.3125 C-82.83500344 183.89978225 -88.0431884 197.91551058 -87.9375 214.625 C-87.93012817 216.00812378 -87.93012817 216.00812378 -87.92260742 217.41918945 C-87.64100386 233.84028743 -82.16245195 245.73477771 -70.625 257.3125 C-70.08230469 257.87839844 -69.53960937 258.44429688 -68.98046875 259.02734375 C-54.18740064 273.14629737 -30.72425197 276.03693428 -11.58203125 279.73486328 C14.20234838 284.77167324 14.20234838 284.77167324 20.5 291.625 C22.13831889 296.65697944 21.9455938 300.66411791 20.25 305.5625 C17.75957543 309.21512271 14.85908329 311.48447224 10.62890625 312.89453125 C1.94783518 314.50436592 -6.97116784 314.36749709 -14.66796875 309.78515625 C-21.07014231 304.96755259 -21.012043 300.37728502 -22.625 292.3125 C-45.065 292.3125 -67.505 292.3125 -90.625 292.3125 C-90.625 308.91710475 -85.8370548 323.23662983 -75.625 336.3125 C-75.11453125 336.99957031 -74.6040625 337.68664062 -74.078125 338.39453125 C-60.00121034 356.06036228 -35.93850753 363.5957601 -14.33349609 366.06933594 C14.7034464 368.67622207 45.20950837 364.05658976 68.625 345.625 C81.62889411 334.28739087 90.08894585 319.46276222 91.55957031 302.13818359 C92.58686688 284.62610291 89.6327217 269.21231306 78.63671875 255.078125 C63.28888216 238.11991584 37.88518308 234.00424123 16.5625 230.02734375 C15.4180542 229.81335938 14.2736084 229.599375 13.09448242 229.37890625 C10.88815904 228.97163366 8.68004966 228.57387392 6.4699707 228.1875 C-1.66516827 226.70431553 -9.89089937 224.92637044 -16.75 220.125 C-19.33157871 216.25263194 -19.89431556 212.93166983 -19.625 208.3125 C-17.94579874 203.07734313 -15.35396117 200.97254066 -10.625 198.3125 C-4.11244974 196.14164991 4.39349577 196.30631088 10.9375 198.4375 C14.97226173 200.63827913 16.92338692 202.41876158 19.375 206.3125 C20.365 210.7675 20.365 210.7675 21.375 215.3125 C43.155 215.3125 64.935 215.3125 87.375 215.3125 C85.77381266 194.49706462 79.59900326 179.57712843 64.00292969 165.66992188 C27.98660402 135.63831259 -38.29066094 139.22757395 -71.625 171.3125 Z " fill="#000000" transform="translate(255.625,-0.3125)"/>
</svg>
