<?xml version="1.0" encoding="UTF-8"?>
<svg version="1.1" xmlns="http://www.w3.org/2000/svg" width="100" height="100">
<path d="M0 0 C10.06866931 7.25087772 17.72756886 16.79280068 20.3125 29.25 C21.70668558 45.91292143 19.18676434 58.15716957 8.640625 71.33984375 C2.22382219 78.48333577 -8.09918475 84.61508614 -17.80297852 85.42700195 C-34.86566428 85.88895149 -46.79126814 83.44661518 -59.8125 71.75 C-70.07212814 61.14084545 -72.17133125 48.37416494 -71.96484375 34.2578125 C-71.50503107 21.94581333 -64.87448062 11.59167312 -56.171875 3.17578125 C-39.79726859 -9.51711334 -17.57628553 -10.86641977 0 0 Z M-37.0625 26 C-38.01585544 29.43207959 -37.60404656 31.82822616 -36.6875 35.25 C-33.04664832 39.64413134 -27.60987368 40.7845058 -22.33203125 42.41796875 C-19.6875 43.25 -19.6875 43.25 -17.6875 44.25 C-17.5 47.625 -17.5 47.625 -17.6875 51.25 C-20.92664229 53.40942819 -21.93609733 53.52232978 -25.6875 53.5 C-26.55375 53.50515625 -27.42 53.5103125 -28.3125 53.515625 C-30.6875 53.25 -30.6875 53.25 -33.6875 51.25 C-34.0175 50.26 -34.3475 49.27 -34.6875 48.25 C-36.0075 48.25 -37.3275 48.25 -38.6875 48.25 C-37.32245276 52.71742733 -35.83514571 55.01027132 -31.6875 57.25 C-26.92448884 57.97146593 -22.00610323 58.431093 -17.609375 56.19140625 C-14.41238316 53.57639108 -12.85435968 51.50144757 -12.3125 47.4375 C-12.82198806 43.10685147 -14.3880547 42.03473183 -17.6875 39.25 C-21.19234264 37.63607811 -21.19234264 37.63607811 -24.9375 36.5 C-31.63194444 34.30555556 -31.63194444 34.30555556 -32.6875 33.25 C-32.875 30.3125 -32.875 30.3125 -32.6875 27.25 C-30.17737037 24.73987037 -29.21944763 24.95278391 -25.75 24.9375 C-24.43708984 24.91236328 -24.43708984 24.91236328 -23.09765625 24.88671875 C-20.24703647 25.31639077 -19.42885859 26.00643141 -17.6875 28.25 C-17.3575 28.91 -17.0275 29.57 -16.6875 30.25 C-15.6975 30.25 -14.7075 30.25 -13.6875 30.25 C-13.88712872 26.65668306 -14.47488628 25.45171045 -17.125 22.9375 C-23.99990368 19.68096668 -32.04118839 19.60923976 -37.0625 26 Z " fill="#FFFFFF" transform="translate(75.6875,10.75)"/>
</svg>
