<?xml version="1.0" encoding="UTF-8"?>
<svg version="1.1" xmlns="http://www.w3.org/2000/svg" width="512" height="512">
<path d="M0 0 C1.01790619 0.00215515 2.03581238 0.0043103 3.08456421 0.00653076 C17.69363523 0.05620146 32.02575853 0.30709809 46.375 3.3125 C47.34985352 3.51117676 48.32470703 3.70985352 49.32910156 3.91455078 C97.7109774 14.03517194 141.69928269 35.9516877 177.375 70.3125 C178.3640332 71.26068604 178.3640332 71.26068604 179.37304688 72.22802734 C188.86130305 81.37247479 197.6012044 90.66984009 205.375 101.3125 C206.23306152 102.46355017 207.09113451 103.61459177 207.94921875 104.765625 C213.98736829 112.95680614 219.34595521 121.47054105 224.375 130.3125 C224.73948242 130.94430176 225.10396484 131.57610352 225.47949219 132.22705078 C247.08534998 169.97532572 256.85198095 212.74189997 256.6875 255.9375 C256.68534485 256.95540619 256.6831897 257.97331238 256.68096924 259.02206421 C256.63129854 273.63113523 256.38040191 287.96325853 253.375 302.3125 C253.07698486 303.77478027 253.07698486 303.77478027 252.77294922 305.26660156 C242.65232806 353.6484774 220.7358123 397.63678269 186.375 433.3125 C185.74287598 433.97185547 185.11075195 434.63121094 184.45947266 435.31054688 C175.31502521 444.79880305 166.01765991 453.5387044 155.375 461.3125 C154.22394983 462.17056152 153.07290823 463.02863451 151.921875 463.88671875 C143.73224019 469.92427396 135.22961724 475.30707302 126.375 480.3125 C125.66778809 480.7146875 124.96057617 481.116875 124.23193359 481.53125 C101.09654164 494.5566741 75.92537591 503.30551461 49.9375 508.625 C49.21860596 508.77235596 48.49971191 508.91971191 47.7590332 509.0715332 C33.08339502 511.86090125 18.55831162 512.66142619 3.64770508 512.62817383 C0.70811513 512.6250221 -2.2304558 512.64854926 -5.16992188 512.67382812 C-18.54306192 512.71848737 -31.43916711 511.51301542 -44.625 509.3125 C-46.33055054 509.03031616 -46.33055054 509.03031616 -48.07055664 508.74243164 C-91.33802759 500.97044532 -132.38793216 480.98345309 -165.625 452.3125 C-166.37007813 451.67828125 -167.11515625 451.0440625 -167.8828125 450.390625 C-181.38779833 438.57948485 -194.05918743 425.82889772 -204.625 411.3125 C-205.48149066 410.16255169 -206.33826433 409.01281411 -207.1953125 407.86328125 C-213.23534209 399.67315742 -218.61867614 391.16870382 -223.625 382.3125 C-224.0271875 381.60528809 -224.429375 380.89807617 -224.84375 380.16943359 C-237.8691741 357.03404164 -246.61801461 331.86287591 -251.9375 305.875 C-252.08485596 305.15610596 -252.23221191 304.43721191 -252.3840332 303.6965332 C-255.35789088 288.05024391 -255.99800362 272.57681954 -255.9375 256.6875 C-255.93534485 255.66959381 -255.9331897 254.65168762 -255.93096924 253.60293579 C-255.88129854 238.99386477 -255.63040191 224.66174147 -252.625 210.3125 C-252.42632324 209.33764648 -252.22764648 208.36279297 -252.02294922 207.35839844 C-241.90232806 158.9765226 -219.9858123 114.98821731 -185.625 79.3125 C-184.99287598 78.65314453 -184.36075195 77.99378906 -183.70947266 77.31445312 C-174.56502521 67.82619695 -165.26765991 59.0862956 -154.625 51.3125 C-153.47394983 50.45443848 -152.32290823 49.59636549 -151.171875 48.73828125 C-142.98224019 42.70072604 -134.47961724 37.31792698 -125.625 32.3125 C-124.91778809 31.9103125 -124.21057617 31.508125 -123.48193359 31.09375 C-100.34654164 18.0683259 -75.17537591 9.31948539 -49.1875 4 C-48.46860596 3.85264404 -47.74971191 3.70528809 -47.0090332 3.5534668 C-31.36274391 0.57960912 -15.88931954 -0.06050362 0 0 Z M-40.625 25.3125 C-41.53459473 25.48410645 -42.44418945 25.65571289 -43.38134766 25.83251953 C-63.67760489 29.8009822 -83.02477449 36.29633046 -101.625 45.3125 C-102.8620166 45.90756348 -102.8620166 45.90756348 -104.12402344 46.51464844 C-122.99100561 55.69529775 -140.04578742 67.2659932 -155.625 81.3125 C-156.18300293 81.81023926 -156.74100586 82.30797852 -157.31591797 82.82080078 C-163.83204988 88.646796 -170.06386087 94.55066038 -175.625 101.3125 C-176.3571875 102.15683594 -177.089375 103.00117187 -177.84375 103.87109375 C-189.58936019 117.5681107 -199.36790755 132.27822574 -207.625 148.3125 C-208.04523438 149.12170898 -208.46546875 149.93091797 -208.8984375 150.76464844 C-219.40193843 171.20668926 -226.41669012 192.73361262 -230.625 215.3125 C-230.87056641 216.60631592 -230.87056641 216.60631592 -231.12109375 217.92626953 C-235.76339107 243.55002426 -235.56339356 271.759752 -230.625 297.3125 C-230.42632324 298.34487793 -230.22764648 299.37725586 -230.02294922 300.44091797 C-221.56608314 342.9152903 -202.20671643 380.95071837 -173.625 413.3125 C-173.15529785 413.84536621 -172.6855957 414.37823242 -172.20166016 414.92724609 C-166.68549487 421.15056383 -161.0485901 427.01067655 -154.625 432.3125 C-153.779375 433.04597656 -152.93375 433.77945312 -152.0625 434.53515625 C-138.3654421 446.27815018 -123.65789811 456.05611623 -107.625 464.3125 C-106.41118652 464.94285156 -106.41118652 464.94285156 -105.17285156 465.5859375 C-84.73081074 476.08943843 -63.20388738 483.10419012 -40.625 487.3125 C-39.33118408 487.55806641 -39.33118408 487.55806641 -38.01123047 487.80859375 C-12.3398197 492.45952499 15.76852653 492.17261153 41.375 487.3125 C42.26719238 487.14621094 43.15938477 486.97992188 44.07861328 486.80859375 C83.78849654 479.15982009 120.75243142 461.72950938 151.375 435.3125 C152.68791016 434.19488281 152.68791016 434.19488281 154.02734375 433.0546875 C177.10180335 412.85973617 195.1406751 389.4451984 209.375 362.3125 C209.70419434 361.69745605 210.03338867 361.08241211 210.37255859 360.44873047 C221.81785637 338.80330144 228.56656983 314.38581061 232.375 290.3125 C232.56763428 289.17240479 232.56763428 289.17240479 232.76416016 288.00927734 C242.18643664 230.72447191 225.3725755 168.31981855 192.05517578 121.45605469 C189.28018652 117.64297833 186.35809525 113.96584767 183.375 110.3125 C182.15296875 108.78496094 182.15296875 108.78496094 180.90625 107.2265625 C169.80733062 93.56700625 157.26543398 80.95184652 143.0546875 70.54345703 C141.3779241 69.31464293 139.72012847 68.06305492 138.0625 66.80859375 C117.3318763 51.33915106 93.9694952 40.1010066 69.375 32.3125 C68.26439209 31.95696045 68.26439209 31.95696045 67.13134766 31.59423828 C45.57986228 24.81372379 23.21015371 22.08020956 0.6875 22.0625 C-0.08645111 22.06182526 -0.86040222 22.06115051 -1.6578064 22.06045532 C-14.84067079 22.07863155 -27.64527154 22.85467224 -40.625 25.3125 Z " fill="#000000" transform="translate(255.625,-0.3125)"/>
<path d="M0 0 C9.36439199 7.97856961 21.59848391 19.80857353 23.3125 32.6875 C19.23135018 35.14849486 15.14459977 37.59998223 11.0546875 40.04638672 C9.03054411 41.2577731 7.00723074 42.47054666 4.984375 43.68408203 C1.94173368 45.50901583 -1.10393468 47.32881958 -4.1512146 49.14599609 C-5.38523377 49.88289178 -6.61832672 50.6213407 -7.85049438 51.36132812 C-9.60232695 52.41298618 -11.35738827 53.45904573 -13.11328125 54.50390625 C-14.13848877 55.11693604 -15.16369629 55.72996582 -16.2199707 56.36157227 C-18.6875 57.6875 -18.6875 57.6875 -20.6875 57.6875 C-21.94921875 55.78125 -21.94921875 55.78125 -23.375 53.1875 C-29.22604045 43.1955058 -35.39473229 37.28323088 -46.375 33.375 C-55.34101859 31.51006813 -65.38919315 31.53834658 -73.6875 35.6875 C-77.19574247 38.00144716 -79.10072478 39.82796377 -80.6875 43.6875 C-81.36190152 48.43967817 -81.18801618 52.50446176 -79.3125 56.9375 C-67.64725706 69.1582307 -47.15715262 73.33885532 -31.45141602 78.28662109 C-16.94275165 82.87415789 -2.99597868 88.5425396 9.3125 97.6875 C10.323125 98.409375 11.33375 99.13125 12.375 99.875 C22.90986812 109.06374608 29.06570779 122.93815256 30.3125 136.6875 C31.08030672 150.64512929 30.02811785 164.13021457 23.3125 176.6875 C22.91546875 177.47382813 22.5184375 178.26015625 22.109375 179.0703125 C12.93236227 195.89483583 -2.91671874 205.03609072 -20.6875 210.6875 C-49.42844776 218.61032182 -81.81102545 216.35775036 -108.19091797 202.04321289 C-125.2707293 192.2271519 -135.87699927 177.52183137 -143.6875 159.6875 C-143.6875 159.0275 -143.6875 158.3675 -143.6875 157.6875 C-142.68505249 157.1298999 -142.68505249 157.1298999 -141.66235352 156.56103516 C-124.08354041 146.78625526 -124.08354041 146.78625526 -106.72875977 136.62158203 C-104.06322993 135.02778819 -101.64517739 133.67339246 -98.6875 132.6875 C-98.09582031 133.64011719 -97.50414062 134.59273437 -96.89453125 135.57421875 C-96.09669948 136.84136332 -95.29850292 138.10827825 -94.5 139.375 C-94.11263672 140.00083984 -93.72527344 140.62667969 -93.32617188 141.27148438 C-86.10278688 152.67368714 -76.33431966 158.97608582 -63.38671875 162.2734375 C-51.76696888 164.05591722 -40.55938835 163.16031893 -29.6875 158.6875 C-28.57955078 158.254375 -28.57955078 158.254375 -27.44921875 157.8125 C-24.50701223 155.93366302 -24.10394401 153.35617258 -23.171875 150.125 C-22.26481656 145.56044784 -22.45225444 141.98291695 -24.6796875 137.84375 C-31.68099443 128.39819982 -45.10279888 125.33071149 -55.8125 122.1875 C-57.0990027 121.79909904 -58.3850504 121.40918798 -59.6706543 121.01782227 C-62.1968394 120.2492123 -64.72412675 119.48478072 -67.25244141 118.72314453 C-90.64001491 111.67196565 -113.8928201 103.22147117 -127.17578125 81.22265625 C-131.77880473 72.62763011 -134.10639829 63.39013768 -134.6875 53.6875 C-134.74035156 53.02878906 -134.79320312 52.37007813 -134.84765625 51.69140625 C-135.61575084 34.02523074 -128.87980173 17.32268508 -117.47265625 4.125 C-87.18512038 -28.07698303 -33.24248379 -26.17845598 0 0 Z " fill="#000000" transform="translate(312.6875,158.3125)"/>
</svg>
